<svg xmlns="http://www.w3.org/2000/svg" xmlns:xlink="http://www.w3.org/1999/xlink" viewBox="0 0 400.33 347.64"><defs><clipPath id="clip-path" transform="translate(-124.88 -82.95)"><rect width="500" height="500" style="fill:none"/></clipPath><radialGradient id="radial-gradient" cx="250.21" cy="415.46" r="71.67" gradientTransform="translate(-210.04 200.87) scale(1.34 0.3)" gradientUnits="userSpaceOnUse"><stop offset="0" stop-color="#362c19"/><stop offset="0.01" stop-color="#3e3522"/><stop offset="0.07" stop-color="#665f50"/><stop offset="0.14" stop-color="#8b857a"/><stop offset="0.21" stop-color="#aaa69e"/><stop offset="0.29" stop-color="#c5c2bc"/><stop offset="0.37" stop-color="#dad8d5"/><stop offset="0.47" stop-color="#ebeae8"/><stop offset="0.58" stop-color="#f6f6f5"/><stop offset="0.72" stop-color="#fdfdfd"/><stop offset="1" stop-color="#fff"/></radialGradient></defs><title>Ресурс 1</title><g style="isolation:isolate"><g id="Слой_2" data-name="Слой 2"><g id="OBJECTS"><g style="clip-path:url(#clip-path)"><path d="M205.17,90.9c53.82,71.43,11.17,44.31-24,101.51-20.27,33.9-24.45,83.33-2.22,115.72,22.89,33.14,58,28.88,90,27.25,19.32-1,33.18-13.68,45.66-32.42,11.44-17.16,13.4-45.72,9.48-64.55-5.88-29.38-18.53-56.23-39.45-74.31-22.89-19.58-51.06-28.2-6.9-73.06-4.58-1.39-9.28-5-13.87-4.29-5.82,2.16-9.89,3.36-14.92,3.76-2.12.17-10-7.16-12-7.56-3.32.76-7,2.51-10.63,3.09A86.24,86.24,0,0,1,206,87.29c-.52,0-1.26,1.17-1.09,1.66Z" transform="translate(-124.88 -82.95)" style="fill:#e8bb6d"/><path d="M277.74,91c-4.58-1.39-9.49-5.88-13.87-4.29-6,2.16-9.89,3.36-14.92,3.76" transform="translate(-124.88 -82.95)" style="fill:#e6c770"/><g style="opacity:0.1;mix-blend-mode:multiply"><path d="M324,238.49c-5.79-28.88-18.11-55.32-38.41-73.38,11.78,16.18,19.49,36,23.72,57.1,3.92,18.83,2,47.38-9.48,64.55-12.48,18.74-26.35,31.43-45.66,32.42-26.16,1.33-54.43,4.42-76.38-12.66.36.56.72,1.13,1.1,1.69,22.89,33.14,58,28.88,90,27.25,19.32-1,33.18-13.68,45.66-32.42C325.92,285.87,327.89,257.32,324,238.49Z" transform="translate(-124.88 -82.95)"/></g><path d="M264,86.75s-14.23,29.12-17.73,64.58c0,0-1.23-42.21,2.93-60.82-.2.1,2.64-.33,6.44-1C258.07,89,261.39,87.27,264,86.75Z" transform="translate(-124.88 -82.95)" style="opacity:0.1;mix-blend-mode:multiply"/><path d="M226.37,86.19s4.12,43.1,13.48,63.32c0,0-8.5-49.19-2.89-66.57,0,0-2.3.81-4.88,1.55C230.58,84.93,227.8,85.29,226.37,86.19Z" transform="translate(-124.88 -82.95)" style="opacity:0.1;mix-blend-mode:multiply"/><path d="M228.24,251.2c3.58,3.35,9.11,6.54,14.1,6.54,3.27,0,7.32-1.87,7.32-5.68,0-4.36-6.07-5.14-12.23-7.4s-12.23-5.76-12.23-15.26c0-9.19,6.39-17.68,15.89-18.3v-9.42h7.24v9.42a31.63,31.63,0,0,1,14.17,4.52l-5.76,11.29a16.17,16.17,0,0,0-10-3.82c-3.43,0-6.62,1.25-6.62,4.36,0,3.58,4.91,5.14,7.63,6.07,8.88,3,16.9,6.23,16.9,17.06s-6.23,16.51-16.36,19v9.74h-7.24V270a28.1,28.1,0,0,1-10-1.95c-3.27-1.25-6.62-2.73-9.19-5.14Z" transform="translate(-124.88 -82.95)" style="fill:#362c19"/><path d="M254.9,135l-23.77,1.38a1.48,1.48,0,0,1-1.56-1.43l0-1.4a1.48,1.48,0,0,1,1.39-1.52l23.77-1.38a1.48,1.48,0,0,1,1.56,1.43l0,1.4A1.48,1.48,0,0,1,254.9,135Z" transform="translate(-124.88 -82.95)" style="fill:#4d3f24"/><rect x="104.87" y="52.53" width="27.71" height="3.56" rx="1.36" ry="1.36" style="fill:#362c19"/><path d="M225.83,169.49a113.89,113.89,0,0,1,12.85-31.94c.39-1-.48-1.25-1.46-1.64l-.75-.3a1.91,1.91,0,0,0-2.49,1.06,97.88,97.88,0,0,0-12.28,30.54,2.75,2.75,0,0,0,.89,3l1.44.91C225,171.55,225.43,170.47,225.83,169.49Z" transform="translate(-124.88 -82.95)" style="fill:#362c19"/><path d="M240.43,181.48c-1.28-15.42-3.43-32-6.07-47.13-.18-1.45.89-1.48,2.11-1.63l.94-.12a2.46,2.46,0,0,1,2.55,2.34c3.1,16.81,5.19,30.33,5.87,43.93.14,2.88-1.55,4-3.87,5.21C240.74,184.23,240.62,182.93,240.43,181.48Z" transform="translate(-124.88 -82.95)" style="fill:#4d3f24"/><path d="M130.92,329.13l-1.3,1.57a4.51,4.51,0,0,0,2.25,7.22l114.45,32.53,13.82-18.37S154.93,312.7,130.92,329.13Z" transform="translate(-124.88 -82.95)" style="fill:#d1aa98"/><path d="M125.86,322.63h0A5.54,5.54,0,0,0,128.7,331l111.23,36.42,14.38-17.94C254.85,348.64,146.78,308,125.86,322.63Z" transform="translate(-124.88 -82.95)" style="fill:#e8bda9"/><path d="M450.63,294s-80.55-.1-92.56-.92S302.85,276.14,271,314l-31.47,5.86s-34.69-7.84-43.06,7.68c0,0-45.85-19-65-6.64a2.42,2.42,0,0,0,.5,4.27c17.72,6.67,90.47,34.33,99.84,42,0,0,18.2,10.67,26.4,9.12,8.5-1.6,81.32-28,112.15-30.12l92.06,2.1Z" transform="translate(-124.88 -82.95)" style="fill:#ffd2b5"/><path d="M196.48,327.53s-9.76,23.53,77.87,14.64l23.1-8.42-21.28,12.09S187.84,357.37,196.48,327.53Z" transform="translate(-124.88 -82.95)" style="fill:#e8bda9"/><polygon points="245.97 204.04 254.33 277.95 385.51 274.03 378.1 186.3 245.97 204.04" style="fill:#fff"/><polygon points="259.31 194.3 264.32 288.21 400.33 288.46 391.51 175.29 259.31 194.3" style="fill:#4b7191"/><polygon points="397.98 258.31 263.01 263.62 264.32 288.21 400.33 288.46 397.98 258.31" style="opacity:0.1;mix-blend-mode:multiply"/><circle cx="414.82" cy="357.28" r="6.99" transform="translate(-191.35 13.41) rotate(-12.27)" style="fill:#e3e3e3"/><circle cx="438.34" cy="357.23" r="6.99" transform="translate(-190.81 18.42) rotate(-12.28)" style="fill:#e3e3e3"/></g><ellipse cx="125.12" cy="326.05" rx="96" ry="21.59" style="opacity:0.18;mix-blend-mode:multiply;fill:url(#radial-gradient)"/><path d="M222,324.77c.51,3.07,1,8.71-1.31,12.11a4,4,0,0,1-3.58,1.65c-4.73-.31-16.54-.43-17.12-7.6-.85-10.56,14-9,19.46-8.55A2.86,2.86,0,0,1,222,324.77Z" transform="translate(-124.88 -82.95)" style="fill:#fac5b6"/></g></g></g></svg>